<?xml version="1.0" encoding="UTF-8"?>
<svg id="_图层_2" data-name="图层 2" xmlns="http://www.w3.org/2000/svg" viewBox="0 0 275.15 60.79">
  <defs>
    <style>
      .cls-1 {
        fill: #0057b7;
      }

      .cls-2 {
        fill: #9b9b9b;
      }

      .cls-3 {
        fill: #5bc2e7;
      }
    </style>
  </defs>
  <g id="_图层_1-2" data-name="图层 1">
    <g>
      <g>
        <path class="cls-1" d="m159.54,15.53v.26h-1.66l-1.87-3.91h-8.29l-1.87,3.91h-1.66v-.26l6.81-13.87h1.79l6.76,13.87Zm-4.25-5.15l-3.45-7.06-3.45,7.06h6.89Z"/>
        <path class="cls-1" d="m172.68,2.3c1.19.6,2.08,1.4,2.72,2.51.64,1.06.98,2.34.98,3.74v.34c0,1.91-.55,3.53-1.7,4.76-1.11,1.23-2.68,2-4.64,2.25l1.02,2.68v.26h-1.66l-1.11-2.85c-1.53,0-2.89-.3-4.04-.89s-2.04-1.4-2.68-2.47-.94-2.3-.94-3.7v-.34c0-1.45.3-2.72.98-3.79s1.53-1.91,2.72-2.47c1.19-.6,2.55-.85,4.17-.85,1.62-.04,3.02.21,4.17.81Zm2.04,6.25c0-1.74-.55-3.1-1.66-4.08-1.11-.98-2.59-1.49-4.51-1.49s-3.45.51-4.55,1.49-1.66,2.38-1.66,4.08v.38c0,1.74.55,3.1,1.66,4.08,1.11.98,2.59,1.49,4.55,1.49s3.45-.51,4.51-1.49c1.11-.98,1.62-2.34,1.62-4.08v-.38h.04Z"/>
        <path class="cls-1" d="m182.89,15.28c-.98-.51-1.74-1.19-2.3-2.13s-.81-2-.81-3.19V1.66h1.62v8.29c0,1.36.43,2.47,1.32,3.28.89.81,2.08,1.23,3.57,1.23s2.72-.43,3.62-1.23,1.36-1.91,1.36-3.28V1.66h1.62v8.29c0,1.19-.26,2.25-.81,3.19s-1.32,1.62-2.3,2.13-2.13.77-3.45.77-2.47-.3-3.45-.77Z"/>
        <path class="cls-1" d="m209.86,15.53v.26h-1.66l-1.87-3.91h-8.29l-1.87,3.91h-1.66v-.26l6.81-13.87h1.79l6.76,13.87Zm-4.3-5.15l-3.45-7.06-3.45,7.06h6.89Z"/>
        <path class="cls-1" d="m212.79,14.85c-1.15-.77-1.7-1.91-1.7-3.4v-.26h1.62v.26c0,2.04,1.74,3.06,5.23,3.06,1.57,0,2.81-.21,3.62-.64s1.23-1.02,1.23-1.83v-.21c0-.72-.26-1.23-.81-1.62-.55-.34-1.49-.6-2.85-.77l-3.02-.38c-3.1-.34-4.64-1.57-4.64-3.57v-.21c0-1.23.55-2.21,1.62-2.89,1.11-.68,2.64-1.02,4.59-1.02,2.13,0,3.7.38,4.81,1.15,1.11.77,1.66,1.87,1.66,3.32v.26h-1.62v-.26c0-2-1.62-2.98-4.85-2.98-1.49,0-2.59.21-3.4.6-.81.43-1.19,1.02-1.19,1.79v.21c0,.64.26,1.11.77,1.45s1.36.55,2.59.72l3.02.38c1.74.21,2.98.64,3.79,1.23.77.6,1.19,1.45,1.19,2.55v.21c0,1.28-.55,2.25-1.7,2.93s-2.76,1.02-4.85,1.02c-2.3.04-4-.34-5.1-1.11Z"/>
        <path class="cls-1" d="m240.44,1.92l-6.68,7.91v5.95h-1.66v-5.91l-6.68-7.95v-.26h1.83l5.7,6.68,5.7-6.68h1.83v.26h-.04Z"/>
        <path class="cls-1" d="m256.01,1.66v14.12h-1.62l-10.04-11.82v11.82h-1.57V1.66h1.62l10.04,11.82V1.66h1.57Z"/>
        <path class="cls-1" d="m263.36,15.15c-1.19-.55-2.13-1.4-2.76-2.47s-.98-2.34-.98-3.74v-.43c0-1.45.34-2.68.98-3.74s1.57-1.87,2.76-2.47c1.19-.6,2.59-.85,4.21-.85,1.45,0,2.72.26,3.87.72,1.15.51,2.08,1.19,2.72,2.04.68.85.98,1.83.98,2.89v.21h-1.66v-.21c0-.77-.26-1.49-.77-2.13s-1.23-1.11-2.13-1.49c-.89-.34-1.91-.55-3.06-.55-2,0-3.57.47-4.68,1.45-1.11.98-1.66,2.34-1.66,4.08v.47c0,1.74.55,3.1,1.66,4.08,1.11.98,2.64,1.45,4.68,1.45,1.15,0,2.17-.17,3.06-.51.89-.34,1.62-.85,2.13-1.49s.77-1.32.77-2.13v-.26h1.66v.26c0,1.06-.34,2.04-.98,2.89-.68.85-1.57,1.53-2.72,2.04-1.15.47-2.47.72-3.87.72-1.62,0-3.02-.26-4.21-.85Z"/>
        <path class="cls-1" d="m145.59,28.08v13.06h-1.53v-13.06h1.53Z"/>
        <path class="cls-1" d="m161.97,28.08v13.06h-1.49l-9.27-10.93v10.93h-1.45v-13.06h1.49l9.31,10.93v-10.93h1.4Z"/>
        <path class="cls-1" d="m178.09,28.08v13.06h-1.49l-9.27-10.93v10.93h-1.45v-13.06h1.49l9.31,10.93v-10.93h1.4Z"/>
        <path class="cls-1" d="m184.85,40.54c-1.11-.55-1.91-1.32-2.51-2.3-.6-.98-.89-2.17-.89-3.49v-.3c0-1.32.3-2.51.89-3.49s1.45-1.74,2.51-2.3c1.11-.55,2.38-.81,3.83-.81s2.72.26,3.83.81,1.91,1.32,2.51,2.3.89,2.17.89,3.49v.3c0,1.32-.3,2.47-.89,3.49-.6.98-1.45,1.74-2.51,2.3-1.11.55-2.38.81-3.83.81-1.45,0-2.72-.26-3.83-.81Zm8.04-1.96c1.02-.94,1.49-2.17,1.49-3.79v-.34c0-1.62-.51-2.85-1.53-3.79s-2.38-1.36-4.17-1.36-3.19.47-4.21,1.36c-1.02.94-1.53,2.17-1.53,3.79v.34c0,1.62.51,2.85,1.53,3.79s2.42,1.36,4.21,1.36,3.19-.47,4.21-1.36Z"/>
        <path class="cls-1" d="m211.22,28.08v.26l-6.25,12.8h-1.74l-6.25-12.8v-.26h1.53l5.57,11.61,5.57-11.61h1.57Z"/>
        <path class="cls-1" d="m224.83,40.88v.26h-1.53l-1.74-3.62h-7.7l-1.74,3.62h-1.53v-.26l6.29-12.8h1.66l6.29,12.8Zm-3.91-4.72l-3.19-6.55-3.19,6.55h6.38Z"/>
        <path class="cls-1" d="m223.98,29.48v-1.4h13.14v1.36h-5.83v11.65h-1.53v-11.65h-5.78v.04h0Z"/>
        <path class="cls-1" d="m241.08,28.08v13.06h-1.53v-13.06h1.53Z"/>
        <path class="cls-1" d="m248.05,40.54c-1.11-.55-1.91-1.32-2.51-2.3-.6-.98-.89-2.17-.89-3.49v-.3c0-1.32.3-2.51.89-3.49.6-.98,1.45-1.74,2.51-2.3,1.11-.55,2.38-.81,3.83-.81s2.72.26,3.83.81,1.91,1.32,2.51,2.3.89,2.17.89,3.49v.3c0,1.32-.3,2.47-.89,3.49-.6.98-1.45,1.74-2.51,2.3-1.11.55-2.38.81-3.83.81-1.45,0-2.72-.26-3.83-.81Zm8.04-1.96c1.02-.94,1.49-2.17,1.49-3.79v-.34c0-1.62-.51-2.85-1.53-3.79-1.02-.94-2.38-1.36-4.17-1.36s-3.19.47-4.21,1.36c-1.02.94-1.53,2.17-1.53,3.79v.34c0,1.62.51,2.85,1.53,3.79,1.02.94,2.42,1.36,4.21,1.36s3.19-.47,4.21-1.36Z"/>
        <path class="cls-1" d="m274.68,28.08v13.06h-1.49l-9.27-10.93v10.93h-1.45v-13.06h1.49l9.31,10.93v-10.93h1.4Z"/>
      </g>
      <path class="cls-3" d="m124.11,10.85h-10.72V.09h8.8c1.06,0,1.96.85,1.96,1.96v8.8h-.04Z"/>
      <rect class="cls-1" x="113.39" y="16.51" width="10.72" height="27.18"/>
      <g>
        <polygon class="cls-2" points="4.68 56.45 1.57 53 .64 53 .64 53.38 4.17 57.38 4.17 60.66 5.19 60.66 5.19 57.38 8.72 53.38 8.72 53 7.78 53 4.68 56.45"/>
        <path class="cls-2" d="m15.27,53.34c-.64-.3-1.36-.47-2.17-.47s-1.57.17-2.17.47c-.64.3-1.11.77-1.49,1.36-.34.6-.51,1.28-.51,2.04v.17c0,.77.17,1.45.51,2.04.34.6.85,1.02,1.45,1.36h0c.64.3,1.36.47,2.17.47.85,0,1.57-.17,2.17-.47.64-.3,1.11-.77,1.49-1.36.34-.6.51-1.28.51-2.04v-.17c0-.77-.17-1.45-.51-2.04-.34-.6-.81-1.06-1.45-1.36Zm.98,3.36v.21c0,.6-.13,1.11-.38,1.53s-.6.77-1.06.98-1.06.34-1.7.34-1.23-.13-1.7-.34-.81-.55-1.06-.98-.38-.94-.38-1.53v-.21c0-.6.13-1.11.38-1.53.26-.43.6-.77,1.06-.98.47-.26,1.06-.34,1.7-.34s1.23.13,1.7.34.85.55,1.06.98c.26.43.38.94.38,1.53Z"/>
        <path class="cls-2" d="m24.75,57.55c0,.43-.09.85-.3,1.19s-.51.6-.85.77c-.38.17-.85.3-1.36.3s-.98-.09-1.36-.3c-.38-.17-.64-.43-.85-.77s-.3-.72-.3-1.19v-4.59h-1.02v4.55c0,.64.17,1.19.43,1.66.3.51.72.89,1.23,1.15.51.26,1.15.38,1.83.38s1.28-.13,1.83-.38c.55-.26.94-.64,1.28-1.15.3-.47.47-1.06.47-1.7v-4.55h-1.02v4.64h0Z"/>
        <path class="cls-2" d="m32.03,53h-4.55v7.66h1.02v-3.19h2.38l2.85,3.19h.94v-.43l-2.51-2.76c.72-.04,1.32-.21,1.79-.55.51-.38.77-.94.77-1.57v-.17c0-.68-.26-1.23-.77-1.62-.43-.38-1.11-.55-1.91-.55Zm1.7,2.17v.13c0,.38-.13.68-.43.89s-.72.34-1.28.34h-3.53v-2.55h3.53c.55,0,.98.13,1.28.34.3.17.43.47.43.85Z"/>
        <path class="cls-2" d="m44.83,56.36l-1.45-.17c-.64-.09-1.11-.21-1.4-.38-.26-.17-.38-.38-.38-.68v-.13c0-.38.17-.64.55-.85.43-.21,1.02-.34,1.83-.34,2.51,0,2.51,1.15,2.51,1.49v.34h1.02v-.34c0-.81-.3-1.45-.94-1.87-.6-.38-1.45-.6-2.55-.6-1.02,0-1.87.17-2.42.55-.64.38-.94.94-.94,1.62v.13c0,.6.21,1.06.68,1.4.43.3,1.06.51,1.91.64l1.45.17c.72.09,1.28.21,1.57.43.26.17.38.43.38.77v.09c0,.38-.17.68-.55.89-.43.21-1.06.34-1.96.34-2.68,0-2.68-1.15-2.68-1.53v-.34h-1.02v.34c0,.81.34,1.45.98,1.87.6.43,1.53.6,2.68.6s2-.17,2.59-.55c.64-.38.98-.94.98-1.66v-.13c0-.64-.26-1.15-.72-1.49-.47-.3-1.15-.51-2.13-.6Z"/>
        <polygon class="cls-2" points="55.25 56.32 50.19 56.32 50.19 53 49.17 53 49.17 60.66 50.19 60.66 50.19 57.3 55.25 57.3 55.25 60.66 56.27 60.66 56.27 53 55.25 53 55.25 56.32"/>
        <rect class="cls-2" x="58.36" y="53" width="1.02" height="7.66"/>
        <path class="cls-2" d="m65.97,53h-4.55v7.66h1.02v-3.19h3.53c.81,0,1.45-.21,1.96-.55.51-.38.77-.94.77-1.57v-.13c0-.68-.26-1.23-.77-1.62-.51-.43-1.15-.6-1.96-.6Zm1.66,2.17v.13c0,.38-.13.68-.43.89h0c-.3.21-.72.34-1.28.34h-3.53v-2.55h3.53c.55,0,.98.13,1.28.34.3.17.43.47.43.85Z"/>
        <polygon class="cls-2" points="70.43 55.72 71.41 55.72 71.41 52.53 70.43 52.53 70.43 55.72"/>
        <path class="cls-2" d="m77.5,56.36l-1.45-.17c-.64-.09-1.11-.21-1.4-.38-.26-.17-.38-.38-.38-.68v-.13c0-.38.17-.64.55-.85.43-.21,1.02-.34,1.83-.34,2.51,0,2.51,1.15,2.51,1.49v.34h1.02v-.34c0-.81-.3-1.45-.94-1.87-.6-.38-1.45-.6-2.55-.6-1.02,0-1.87.17-2.42.55-.64.38-.94.94-.94,1.62v.13c0,.6.21,1.06.68,1.4.43.3,1.06.51,1.91.64l1.45.17c.72.09,1.28.21,1.57.43.26.17.38.43.38.77v.09c0,.38-.17.68-.55.89-.43.21-1.06.34-1.96.34-2.68,0-2.68-1.15-2.68-1.53v-.34h-1.02v.34c0,.81.34,1.45.98,1.87.6.43,1.53.6,2.68.6s2-.17,2.59-.55c.64-.38.98-.94.98-1.66v-.13c0-.64-.26-1.15-.72-1.49-.51-.3-1.19-.51-2.13-.6Z"/>
        <path class="cls-2" d="m92.21,53.21c-.6-.21-1.28-.34-2.04-.34-.85,0-1.57.17-2.21.47-.64.3-1.15.77-1.53,1.36-.34.6-.55,1.28-.55,2v.26c0,.77.17,1.45.51,2.04.34.6.85,1.02,1.49,1.32.64.3,1.4.47,2.25.47,1.28,0,2.3-.34,3.06-.98l.04.85h.94v-4.08h-5.06v.98h4.04v1.06c-.34.38-.72.68-1.19.89-.51.21-1.11.3-1.83.3-1.06,0-1.87-.26-2.42-.77s-.85-1.19-.85-2.08v-.26c0-.6.13-1.11.38-1.53.26-.43.64-.77,1.11-.98.51-.21,1.11-.34,1.74-.34.6,0,1.11.09,1.57.26.47.17.81.38,1.06.68.26.3.38.6.38.94v.34h1.02v-.34c0-.55-.17-1.06-.55-1.49-.26-.47-.72-.77-1.36-1.02Z"/>
        <path class="cls-2" d="m101.78,57.55c0,.43-.09.85-.3,1.15-.21.34-.51.6-.85.77-.38.17-.85.3-1.36.3s-.98-.09-1.36-.3c-.38-.17-.68-.43-.85-.77-.21-.34-.3-.72-.3-1.19v-4.59h-1.02v4.55c0,.64.17,1.19.43,1.66.3.51.72.89,1.23,1.15s1.15.38,1.83.38,1.28-.13,1.83-.38c.55-.26.94-.64,1.28-1.15.3-.47.47-1.06.47-1.7v-4.55h-1.02v4.68h0Z"/>
        <path class="cls-2" d="m106.93,53l-3.66,7.23-.04.43h.94l1.11-2.17h4.21l1.11,2.17h.94v-.34l-3.7-7.32h-.89Zm-1.19,4.51l1.62-3.23,1.62,3.23h-3.23Z"/>
        <path class="cls-2" d="m117.05,53h-4.55v7.66h1.02v-3.19h2.38l2.85,3.19h.94v-.43l-2.51-2.76c.72-.04,1.32-.21,1.79-.55.51-.38.77-.94.77-1.57v-.17c0-.68-.26-1.23-.77-1.62-.43-.38-1.11-.55-1.91-.55Zm-3.53.94h3.53c.55,0,.98.13,1.28.34s.43.51.43.89v.13c0,.38-.13.68-.43.89s-.72.34-1.28.34h-3.53v-2.59Z"/>
        <path class="cls-2" d="m124.75,53h-3.36v7.66h3.36c1.32,0,2.34-.34,3.02-.94.72-.64,1.06-1.57,1.06-2.76v-.21c0-1.19-.34-2.13-1.06-2.76-.68-.68-1.7-.98-3.02-.98Zm3.06,3.7v.21c0,.94-.26,1.62-.77,2.04h0c-.51.47-1.32.68-2.34.68h-2.34v-5.74h2.38c1.02,0,1.79.26,2.34.72.47.51.72,1.19.72,2.08Z"/>
        <rect class="cls-2" x="130.62" y="53" width="1.02" height="7.66"/>
        <path class="cls-2" d="m136.53,53l-3.66,7.23-.04.43h.94l1.11-2.17h4.21l1.11,2.17h.94v-.34l-3.7-7.32h-.89Zm-1.19,4.51l1.62-3.23,1.62,3.23h-3.23Z"/>
        <polygon class="cls-2" points="148.23 59.04 143.04 53.09 143 53 142.1 53 142.1 60.66 143.12 60.66 143.12 54.62 148.31 60.57 148.36 60.66 149.25 60.66 149.25 53 148.23 53 148.23 59.04"/>
        <rect class="cls-2" x="155.67" y="53" width="1.02" height="7.66"/>
        <polygon class="cls-2" points="164.86 59.04 159.67 53.09 159.63 53 158.73 53 158.73 60.66 159.75 60.66 159.75 54.62 164.94 60.57 164.99 60.66 165.88 60.66 165.88 53 164.86 53 164.86 59.04"/>
        <polygon class="cls-2" points="170.17 53.94 173.62 53.94 173.62 60.66 174.6 60.66 174.6 53.94 178 53.94 178 53 170.17 53 170.17 53.94"/>
        <polygon class="cls-2" points="184.93 56.32 179.83 56.32 179.83 53 178.81 53 178.81 60.66 179.83 60.66 179.83 57.3 184.93 57.3 184.93 60.66 185.91 60.66 185.91 53 184.93 53 184.93 56.32"/>
        <polygon class="cls-2" points="187.78 60.66 194.08 60.66 194.08 59.68 188.8 59.68 188.8 57.3 193.87 57.3 193.87 56.32 188.8 56.32 188.8 53.94 194.08 53.94 194.08 53 187.78 53 187.78 60.66"/>
        <path class="cls-2" d="m203.48,53h-3.36v7.66h3.36c1.32,0,2.34-.34,3.02-.94.72-.64,1.06-1.57,1.06-2.76v-.21c0-1.19-.34-2.13-1.06-2.76-.68-.68-1.7-.98-3.02-.98Zm2.3,6c-.51.47-1.32.68-2.34.68h-2.38v-5.74h2.38c1.02,0,1.79.26,2.34.72.51.47.77,1.15.77,2.04v.21c0,.94-.21,1.62-.77,2.08h0Z"/>
        <rect class="cls-2" x="209.35" y="53" width="1.02" height="7.66"/>
        <path class="cls-2" d="m218.45,53.21c-.6-.21-1.28-.34-2.04-.34-.85,0-1.57.17-2.25.47-.64.3-1.15.77-1.53,1.36-.34.6-.55,1.28-.55,2v.26c0,.77.17,1.45.51,2.04.34.6.85,1.02,1.49,1.32.64.3,1.4.47,2.25.47,1.28,0,2.3-.34,3.06-.98l.04.85h.94v-4.08h-5.06v.98h4.04v1.06c-.34.38-.72.68-1.19.89-.51.21-1.11.3-1.83.3-1.06,0-1.87-.26-2.42-.77s-.85-1.19-.85-2.08v-.26c0-.6.13-1.11.38-1.53.26-.43.64-.77,1.11-.98.51-.21,1.11-.34,1.74-.34.6,0,1.11.09,1.57.26.47.17.81.38,1.06.68.26.3.38.6.38.94v.34h1.02v-.34c0-.55-.17-1.06-.55-1.49-.26-.47-.72-.77-1.32-1.02Z"/>
        <rect class="cls-2" x="222.24" y="53" width="1.02" height="7.66"/>
        <polygon class="cls-2" points="232.06 53 224.28 53 224.28 53.94 227.68 53.94 227.68 60.66 228.7 60.66 228.7 53.94 232.06 53.94 232.06 53"/>
        <path class="cls-2" d="m234.87,53l-3.66,7.23-.04.43h.94l1.11-2.17h4.21l1.11,2.17h.94v-.34l-3.7-7.32h-.89Zm-1.19,4.51l1.62-3.23,1.62,3.23h-3.23Z"/>
        <polygon class="cls-2" points="241.46 53 240.44 53 240.44 60.66 247.16 60.66 247.16 59.68 241.46 59.68 241.46 53"/>
        <path class="cls-2" d="m253.58,53l-3.66,7.23-.04.43h.94l1.11-2.17h4.21l1.11,2.17h.94v-.34l-3.7-7.32h-.89Zm-1.19,4.51l1.62-3.23,1.62,3.23h-3.23Z"/>
        <path class="cls-2" d="m264.77,53.21c-.6-.21-1.28-.34-2.04-.34-.85,0-1.57.17-2.21.47-.64.3-1.15.77-1.53,1.36-.34.6-.55,1.28-.55,2v.26c0,.77.17,1.45.51,2.04.34.6.85,1.02,1.49,1.32.64.3,1.4.47,2.25.47,1.28,0,2.3-.34,3.06-.98l.04.85h.94v-4.08h-5.06v.98h4.04v1.06c-.34.38-.72.68-1.19.89-.51.21-1.11.3-1.83.3-1.06,0-1.87-.26-2.42-.77s-.85-1.19-.85-2.08v-.26c0-.6.13-1.11.38-1.53.26-.43.64-.77,1.11-.98.51-.21,1.11-.34,1.74-.34.6,0,1.11.09,1.57.26.47.17.81.38,1.06.68.26.3.38.6.38.94v.34h1.02v-.34c0-.55-.17-1.06-.55-1.49-.26-.47-.72-.77-1.36-1.02Z"/>
        <polygon class="cls-2" points="274.68 53.94 274.68 53 268.38 53 268.38 60.66 274.68 60.66 274.68 59.68 269.4 59.68 269.4 57.3 274.47 57.3 274.47 56.32 269.4 56.32 269.4 53.94 274.68 53.94"/>
      </g>
      <path class="cls-1" d="m94.42,17.15h-32.45c1.53,5.83,6.81,10.12,13.1,10.12h17.44c1.57,0,3.02,1.15,3.15,2.72.17,1.83-1.23,3.36-3.02,3.36h-19.4c-4.59,0-8.89-2.13-11.7-5.74L42.62,3.88c-3.79-5.06-10.12-5.27-13.91,0L0,43.69h53.12c-6.55-2.68-11.14-10.38-11.14-10.38h-19.22l13.1-17.69,12.5,15.48c1.28,1.62,6.21,7.15,7.57,8.21,2.55,1.96,6.34,4.42,11.36,4.42h27.18c7.32,0,13.27-5.95,13.27-13.27h0c-.04-7.36-5.95-13.31-13.31-13.31Z"/>
      <path class="cls-3" d="m75.11.09c-6.51,0-11.95,4.59-13.27,10.72h47.76V.09h-34.49Z"/>
      <rect class="cls-3" x="134.23" y=".09" width=".94" height="43.6"/>
    </g>
  </g>
</svg>